PathFileType	4	(X/Y/Z)	C:/Users/opensim2020/Desktop/walking_exp_matlab/subject01_walking17_run.trc	
DataRate	CameraRate	NumFrames	NumMarkers	Units	OrigDataRate	OrigDataStartFrame	OrigNumFrames	
100.00	100.00	4	61	mm	100.00	325	87	
Frame#	Time	LTHI			LKNE			RELB			STRN			RWRA			LSHO			RFRM			RUPA			RSHO			RASI			RBHD			RFIN			LFHD			RFHD			CLAV			LHEE			RWRB			LASI			LBHD			LWRA			LTIB			RTHI			LWRB			LTOE			RKNE			C7			LFRM			LFIN			LUPA			LELB			RTIB			RTOE			RBAK			RANK			T10			LPSI			LANK			RHEE			RPSI			*39			*40			*41			*42			*43			*44			*45			*46			*47			*48			*49			*50			*51			*52			*53			*54			*55			*56			*57			*58			*59			*60			
		X1	Y1	Z1	X2	Y2	Z2	X3	Y3	Z3	X4	Y4	Z4	X5	Y5	Z5	X6	Y6	Z6	X7	Y7	Z7	X8	Y8	Z8	X9	Y9	Z9	X10	Y10	Z10	X11	Y11	Z11	X12	Y12	Z12	X13	Y13	Z13	X14	Y14	Z14	X15	Y15	Z15	X16	Y16	Z16	X17	Y17	Z17	X18	Y18	Z18	X19	Y19	Z19	X20	Y20	Z20	X21	Y21	Z21	X22	Y22	Z22	X23	Y23	Z23	X24	Y24	Z24	X25	Y25	Z25	X26	Y26	Z26	X27	Y27	Z27	X28	Y28	Z28	X29	Y29	Z29	X30	Y30	Z30	X31	Y31	Z31	X32	Y32	Z32	X33	Y33	Z33	X34	Y34	Z34	X35	Y35	Z35	X36	Y36	Z36	X37	Y37	Z37	X38	Y38	Z38	X39	Y39	Z39	X40	Y40	Z40	X41	Y41	Z41	X42	Y42	Z42	X43	Y43	Z43	X44	Y44	Z44	X45	Y45	Z45	X46	Y46	Z46	X47	Y47	Z47	X48	Y48	Z48	X49	Y49	Z49	X50	Y50	Z50	X51	Y51	Z51	X52	Y52	Z52	X53	Y53	Z53	X54	Y54	Z54	X55	Y55	Z55	X56	Y56	Z56	X57	Y57	Z57	X58	Y58	Z58	X59	Y59	Z59	X60	Y60	Z60	X61	Y61	Z61	

55	0.540	-572.18243	423.52979	564.00281	-556.76263	390.08511	433.06207	-97.91819	246.36601	1143.73242	-393.75156	562.44379	1171.07849	-129.17622	396.17789	937.77344	-554.25452	504.44968	1355.93787	-81.74628	292.13632	1021.59833	-142.69566	309.54297	1244.87292	-252.07275	455.91696	1355.55066	-318.13763	475.64175	913.77637	-328.90613	410.75705	1588.26208	-91.86159	434.08231	874.27393	-464.51511	495.85590	1640.79333	-353.79355	514.91193	1654.08398	-391.28766	532.68506	1329.15271	-447.79337	-15.91581	402.08981	-87.53806	361.17941	916.68152	-521.59680	472.95728	916.68024	-446.44315	392.27237	1577.83655	-502.60547	614.16888	1050.61536	-553.17828	211.94157	407.07901	-263.26880	555.94611	602.28308	-527.52936	628.08734	998.45654	-507.85278	-51.65493	217.54494	-290.56003	635.44702	467.86215	-414.26282	392.89597	1403.31567	-623.23822	554.94830	1022.60284	-465.69943	677.91467	1021.70209	-672.18976	480.17612	1202.07507	-708.50299	469.41891	1054.85095	-284.73401	616.34174	289.89026	-358.03345	770.03046	38.38272	-351.43106	312.55096	1230.38843	-336.32309	624.81787	81.84097	-423.61105	323.03986	1133.65234	-470.50919	300.58124	942.69971	-504.34052	1.97881	366.62433	-383.55969	574.85400	51.45909	-328.41681	304.53018	930.09174	-3101.88037	1973.18225	1023.61188	-3140.70557	2012.37622	1022.01001				-376.14114	495.41156	1686.68298																																																						 
56	0.550	-577.38788	483.83670	559.91827	-562.54718	459.69525	428.53015	-94.09593	304.06439	1123.04651	-397.43506	608.70227	1165.97620	-136.36722	463.33603	927.00897	-555.07019	543.98297	1353.10828	-83.58746	356.92984	1003.24921	-138.44218	360.73032	1227.06494	-249.99924	502.16940	1348.44800	-319.21753	521.49493	908.24365	-325.85184	456.02908	1583.97815	-102.25922	505.54385	864.56970	-462.17682	539.97400	1636.63989	-351.51331	560.24402	1649.48389	-392.09631	577.40918	1323.86475	-448.63821	56.23280	408.94730	-94.33165	430.98523	902.76770	-523.83875	520.24139	912.77179	-443.25348	436.28848	1574.01880	-516.61548	647.98853	1023.73346	-557.44641	284.23669	407.05563	-262.41718	594.64819	591.84814	-545.72595	656.05072	972.37201	-513.42285	18.80024	226.10475	-291.64166	668.40771	452.76996	-410.65466	435.61722	1397.13269	-636.87836	582.21643	1011.24896	-485.56284	710.56995	986.48810	-675.03406	511.35699	1202.52734	-715.16864	495.69104	1056.75916	-285.17041	635.67395	278.28482	-362.19806	768.45465	38.58066	-345.65643	357.89243	1222.30273	-341.64529	624.56348	72.36577	-420.16913	368.58572	1126.47473	-470.88547	346.24765	934.06079	-506.21310	74.00249	373.86502	-387.25751	572.22711	42.04798	-327.26221	349.86893	922.69446	-3101.95239	1973.09082	1023.52637	-3140.78589	2012.50769	1022.14618				-373.58197	541.48956	1681.93665																																																						 
57	0.560	-581.93549	544.49445	555.59637	-568.01971	531.19312	424.44861	-90.68512	363.67834	1101.57166	-400.73993	654.71643	1161.26184	-144.82278	532.07397	917.36542	-556.29126	583.40460	1350.40857	-86.58378	423.77429	984.97870	-134.29080	413.26321	1208.80859	-248.12883	548.98492	1341.33215	-320.64151	564.73987	902.86121	-322.87308	501.10938	1579.57886	-114.23227	578.18066	856.59839	-460.04257	583.78210	1632.94226	-349.57596	605.20227	1645.37903	-392.98532	622.39862	1318.85767	-450.38702	129.77470	412.79016	-103.01728	502.65533	889.76819	-524.54865	565.93683	907.90302	-440.03595	480.22946	1569.93726	-533.47443	679.22003	997.52441	-562.68842	357.89301	405.24835	-262.93680	628.24860	583.93988	-567.55927	682.34631	948.71118	-517.75659	93.90180	230.85907	-294.95084	704.89227	444.20294	-407.00778	478.01178	1390.54077	-651.15979	607.44641	1000.29016	-509.53900	740.09888	952.41925	-676.83777	542.26263	1203.15759	-721.16455	521.13092	1058.93921	-289.94476	659.57513	274.74237	-363.28958	769.13739	38.38166	-339.87915	403.06345	1213.06531	-346.42374	628.55988	71.31514	-417.23062	413.60077	1117.82458	-471.94345	389.72070	924.57709	-508.31985	148.08144	377.63226	-391.96692	573.07294	41.25821	-325.42917	392.45422	914.82190	-3101.97168	1973.09668	1023.53052	-3140.79321	2012.47339	1022.19116				-371.43179	587.03961	1676.77380																																																						 
58	0.570	-585.21747	605.89636	550.93353	-571.81909	604.55676	421.71936	-88.32204	425.48880	1080.05127	-403.45444	700.35992	1157.69360	-154.89388	602.10095	909.63519	-557.82556	623.20056	1348.00281	-91.01559	492.64767	967.57922	-130.68521	468.54364	1191.47217	-246.21033	595.77631	1335.22974	-321.72000	605.54791	898.04138	-320.02826	546.45709	1575.63367	-127.69359	652.17291	851.25836	-458.14426	627.23450	1630.61011	-347.41217	649.91571	1642.63208	-394.00665	667.31104	1315.13391	-453.33289	204.45230	413.20853	-112.79253	576.13171	878.57935	-525.31201	607.57648	900.20032	-437.07364	524.31195	1566.20923	-552.20331	707.74829	973.59882	-567.88586	433.22311	402.42108	-263.71307	659.93994	580.04852	-590.22821	704.79950	927.21796	-521.62769	173.65137	230.94493	-298.60791	740.51184	441.97528	-403.71414	520.52631	1385.68994	-665.85388	630.59052	990.78027	-536.76007	766.22522	921.76575	-677.76416	574.22058	1203.72839	-725.48395	545.42206	1061.22473	-294.47110	687.21570	273.72177	-363.41766	769.68616	38.37542	-335.16022	448.98819	1203.57605	-347.49530	632.84198	78.78480	-415.02121	457.97217	1108.23364	-473.68326	430.50919	914.42303	-511.01999	224.17477	377.63242	-393.80301	574.43616	44.75719	-324.00153	432.15753	906.77161	-3102.13721	1972.97729	1023.88574	-3140.80591	2012.60059	1022.24915				-369.19778	631.65308	1672.35437																																																						 
